HIERARCHY
ROOT Hips
{
	OFFSET 0.000000 0.000000 0.000000
	CHANNELS 6 Xposition Yposition Zposition Zrotation Yrotation Xrotation
	JOINT LHipJoint
	{
		OFFSET 0.000000 0.000000 0.000000
		CHANNELS 3 Zrotation Yrotation Xrotation
		JOINT LeftUpLeg
		{
			OFFSET 0.076937 -0.101296 0.047373
			CHANNELS 3 Zrotation Yrotation Xrotation
			JOINT LeftLeg
			{
				OFFSET 0.138181 -0.379650 0.000000
				CHANNELS 3 Zrotation Yrotation Xrotation
				JOINT LeftFoot
				{
					OFFSET 0.144621 -0.397343 0.000000
					CHANNELS 3 Zrotation Yrotation Xrotation
					JOINT LeftToeBase
					{
						OFFSET 0.008898 -0.024446 0.131094
						CHANNELS 3 Zrotation Yrotation Xrotation
						End Site
						{
							OFFSET 0.000000 0.000000 0.000000
						}
					}
				}
			}
		}
	}
	JOINT RHipJoint
	{
		OFFSET 0.000000 0.000000 0.000000
		CHANNELS 3 Zrotation Yrotation Xrotation
		JOINT RightUpLeg
		{
			OFFSET -0.073689 -0.101296 0.047373
			CHANNELS 3 Zrotation Yrotation Xrotation
			JOINT RightLeg
			{
				OFFSET -0.143511 -0.394292 0.000000
				CHANNELS 3 Zrotation Yrotation Xrotation
				JOINT RightFoot
				{
					OFFSET -0.144963 -0.398282 0.000000
					CHANNELS 3 Zrotation Yrotation Xrotation
					JOINT RightToeBase
					{
						OFFSET -0.009298 -0.025546 0.133386
						CHANNELS 3 Zrotation Yrotation Xrotation
						End Site
						{
							OFFSET 0.000000 0.000000 0.000000
						}
					}
				}
			}
		}
	}
	JOINT LowerBack
	{
		OFFSET 0.000000 0.000000 0.000000
		CHANNELS 3 Zrotation Yrotation Xrotation
		JOINT Spine
		{
			OFFSET 0.001596 0.114897 -0.010915
			CHANNELS 3 Zrotation Yrotation Xrotation
			JOINT Spine1
			{
				OFFSET 0.003201 0.115645 -0.002413
				CHANNELS 3 Zrotation Yrotation Xrotation
				JOINT Neck
				{
					OFFSET 0.000000 0.000000 0.000000
					CHANNELS 3 Zrotation Yrotation Xrotation
					JOINT Neck1
					{
						OFFSET -0.003058 0.098565 0.009709
						CHANNELS 3 Zrotation Yrotation Xrotation
						JOINT Head
						{
							OFFSET 0.005874 0.099418 -0.006997
							CHANNELS 3 Zrotation Yrotation Xrotation
							End Site
							{
								OFFSET 0.000000 0.000000 0.000000
							}
						}
					}
				}
				JOINT LeftShoulder
				{
					OFFSET 0.000000 0.000000 0.000000
					CHANNELS 3 Zrotation Yrotation Xrotation
					JOINT LeftArm
					{
						OFFSET 0.189788 0.067783 -0.017566
						CHANNELS 3 Zrotation Yrotation Xrotation
						JOINT LeftForeArm
						{
							OFFSET 0.281260 -0.000000 -0.000000
							CHANNELS 3 Zrotation Yrotation Xrotation
							JOINT LeftHand
							{
								OFFSET 0.196626 -0.000000 -0.000000
								CHANNELS 3 Zrotation Yrotation Xrotation
								JOINT LeftFingerBase
								{
									OFFSET 0.000000 0.000000 0.000000
									CHANNELS 3 Zrotation Yrotation Xrotation
									JOINT LeftHandIndex1
									{
										OFFSET 0.040372 -0.000000 -0.000000
										CHANNELS 3 Zrotation Yrotation Xrotation
										End Site
										{
											OFFSET 0.000000 0.000000 0.000000
										}
									}
								}
								JOINT LThumb
								{
									OFFSET 0.000000 0.000000 0.000000
									CHANNELS 3 Zrotation Yrotation Xrotation
									End Site
									{
										OFFSET 0.000000 0.000000 0.000000
									}
								}
							}
						}
					}
				}
				JOINT RightShoulder
				{
					OFFSET 0.000000 0.000000 0.000000
					CHANNELS 3 Zrotation Yrotation Xrotation
					JOINT RightArm
					{
						OFFSET -0.177042 0.077557 -0.022840
						CHANNELS 3 Zrotation Yrotation Xrotation
						JOINT RightForeArm
						{
							OFFSET -0.295874 -0.000000 -0.000000
							CHANNELS 3 Zrotation Yrotation Xrotation
							JOINT RightHand
							{
								OFFSET -0.194403 -0.000000 -0.000000
								CHANNELS 3 Zrotation Yrotation Xrotation
								JOINT RightFingerBase
								{
									OFFSET 0.000000 0.000000 0.000000
									CHANNELS 3 Zrotation Yrotation Xrotation
									JOINT RightHandIndex1
									{
										OFFSET -0.035138 -0.000000 -0.000000
										CHANNELS 3 Zrotation Yrotation Xrotation
										End Site
										{
											OFFSET 0.000000 0.000000 0.000000
										}
									}
								}
								JOINT RThumb
								{
									OFFSET 0.000000 0.000000 0.000000
									CHANNELS 3 Zrotation Yrotation Xrotation
									End Site
									{
										OFFSET 0.000000 0.000000 0.000000
									}
								}
							}
						}
					}
				}
			}
		}
	}
}
MOTION
Frames: 11
Frame Time: 0.033333
5.528742 0.824571 -6.043911 -179.564376 -7.706460 -173.777480 -15.458957 33.079967 -16.936471 -27.972411 -18.378538 -37.815856 21.918896 4.909949 91.051621 31.798515 3.814182 -5.679265 -7.375685 14.367843 -11.007218 4.045497 -31.015139 -13.153299 25.466989 11.977507 -28.501089 -26.612681 2.012031 72.014944 -30.099713 9.066365 -22.384437 6.457601 -7.878910 -13.148503 -0.398526 2.211837 70.368283 5.758363 6.264260 -6.983963 -1.856080 -6.657222 0.228647 -4.259563 1.440830 -16.061293 3.195420 0.365429 -12.155696 -2.412751 0.003037 -20.706875 18.994097 9.665331 -1.289644 -83.460607 -25.356969 13.684483 -179.687633 -70.632175 -171.183409 19.686882 -31.828440 18.036399 -0.795607 9.402315 -0.022612 -0.009287 -0.014859 0.011509 0.005564 -0.008743 -0.003969 -18.710790 -15.788897 -0.370369 85.810720 28.268690 13.295731 -175.624306 72.673304 -166.588968 -16.109397 32.325396 14.406455 -0.883337 -8.358385 -0.189858 -0.025814 -0.067027 0.043590 -0.001883 0.000738 0.022807 
5.517868 0.820739 -6.082887 -179.734088 -10.263905 -173.483449 -14.686429 34.068618 -18.103722 -29.835444 -18.907680 -38.617620 19.138691 5.028150 82.281843 29.489379 5.315199 -8.675425 -6.422401 11.905334 -10.588562 5.044921 -29.514721 -12.408921 23.944997 10.785635 -27.518465 -26.713071 1.196714 72.752155 -29.170216 7.807564 -23.054008 6.616800 -8.399999 -13.404991 0.373736 0.519332 72.086088 4.632651 5.489805 -8.226786 -1.247668 -6.098538 2.303303 -3.508623 0.269850 -16.286424 3.667755 -0.631415 -12.592529 -2.409526 -0.579739 -21.099594 20.545147 10.018038 -1.763398 -84.837420 -25.890468 11.062029 -178.071817 -68.708927 -171.029226 19.970093 -32.101647 18.495400 -0.908611 9.293497 -0.032721 -0.008648 -0.016637 0.013123 0.003935 -0.009196 -0.002803 -19.925733 -13.312824 0.025238 86.505811 31.884740 12.033427 -177.482151 71.129589 -168.159690 -16.176473 32.933187 14.497485 -0.569991 -8.697632 -0.144477 -0.025285 -0.063925 0.044402 -0.000235 -0.000209 0.024385 
5.504973 0.818143 -6.122672 -179.847249 -12.719470 -173.308853 -14.160885 35.567470 -19.885021 -33.306214 -19.121398 -37.902161 16.994393 4.635269 71.454436 30.142348 2.829459 -10.680759 -6.011752 9.700921 -9.878823 6.170156 -28.112786 -11.470915 22.190119 9.890570 -26.727041 -27.100470 -0.157652 73.721328 -29.535473 6.972668 -22.601610 6.973110 -8.891016 -13.941342 1.380111 -1.238515 74.311785 3.515669 4.470946 -9.519181 -0.868335 -6.018859 4.635237 -2.740554 -1.810227 -16.989304 3.905759 -2.667044 -13.235609 -2.575830 -1.337175 -21.848420 22.352591 10.894447 -1.681921 -86.202807 -25.883017 7.696877 -178.213515 -66.936492 -171.166808 19.646667 -31.744758 18.018947 -0.600576 9.083005 0.048503 -0.008030 -0.017865 0.014603 0.002160 -0.010189 -0.002249 -21.681238 -11.391248 0.428246 87.543886 35.755495 11.904449 -178.995941 69.580590 -169.871800 -16.168988 34.842196 14.514194 0.222755 -8.431314 -0.186475 -0.025946 -0.062674 0.044310 0.001576 -0.000340 0.024884 
5.489827 0.814685 -6.163538 -179.851475 -14.820394 -173.119245 -14.182938 37.069856 -22.196821 -37.771605 -19.456106 -36.255819 16.138902 3.362226 62.265008 31.872511 -0.907215 -11.143464 -6.066332 8.326785 -9.607955 7.075564 -26.969229 -10.381070 20.455693 9.007268 -25.757888 -28.123201 -1.560735 74.448487 -30.111615 6.334061 -21.962876 7.314423 -9.910230 -15.182819 2.448182 -2.946224 76.276321 2.686890 3.428866 -10.466166 -0.769730 -6.141101 6.380909 -2.071690 -4.112131 -17.662625 3.815359 -4.952591 -13.592406 -2.811307 -1.855018 -22.376751 23.674698 11.841335 -1.257089 -87.460433 -25.984018 3.914661 -178.136798 -66.018992 -171.363755 19.233710 -30.731404 17.497554 0.058479 8.966672 0.139232 -0.009187 -0.018040 0.015107 0.000775 -0.010812 -0.002521 -23.363271 -9.814421 0.566130 88.970319 38.978728 12.744777 179.584957 68.341880 -170.854531 -16.361832 36.506517 14.778597 0.759429 -7.960812 -0.200867 -0.025682 -0.062355 0.045145 0.003785 -0.000771 0.025841 
5.473112 0.809305 -6.205700 -179.945060 -16.100191 -173.141614 -14.487226 38.006453 -23.777764 -41.509578 -20.043292 -34.613636 16.062231 2.347850 56.942403 33.178240 -3.215086 -9.964701 -6.422187 7.984766 -9.357247 7.555783 -26.466535 -9.497069 19.308980 8.187885 -24.586890 -29.564811 -2.420852 75.113997 -30.353364 6.013859 -22.361075 7.500275 -11.230236 -16.461164 3.222204 -3.916318 77.562075 2.480277 3.053233 -10.807084 -1.037389 -6.670745 7.341799 -1.698836 -5.860610 -18.180605 3.595029 -6.669498 -13.690384 -2.992405 -2.085058 -22.530774 24.466817 12.363812 -0.992316 -88.543690 -26.388034 1.624947 -178.077905 -65.385918 -171.289366 19.051144 -29.565108 17.359723 0.555073 8.933446 0.205258 -0.011424 -0.017293 0.014856 0.001226 -0.011383 -0.002447 -24.679615 -8.943496 0.520618 89.812467 41.313383 13.391663 178.522583 68.019853 -171.805885 -16.267664 37.754498 14.497661 0.873597 -7.677649 -0.195956 -0.025411 -0.060359 0.046540 0.005172 -0.000704 0.025971 
5.455068 0.803533 -6.249349 -179.833139 -17.541726 -172.797275 -15.477544 38.051649 -25.725641 -44.761000 -19.960242 -32.665619 17.377744 1.805918 54.833470 34.345959 -4.428583 -8.314538 -6.946999 8.348522 -9.381306 7.609251 -26.223336 -8.368598 17.999057 7.385126 -23.793758 -30.541363 -3.291400 75.797022 -30.298678 5.696045 -23.043002 7.436470 -12.577995 -17.706040 4.609015 -4.401753 78.126001 2.790308 3.325691 -10.768463 -1.519313 -7.212784 7.645146 -1.660634 -6.346140 -18.556746 3.201591 -7.129287 -13.701231 -3.074608 -1.753688 -22.460077 24.510238 12.390277 -1.039144 -89.238081 -26.808661 1.425725 -178.312948 -65.132676 -171.334098 18.644279 -28.893303 17.009733 0.612825 8.910595 0.243724 -0.012653 -0.016133 0.014627 0.001993 -0.012136 -0.002777 -25.431299 -8.917725 0.379767 89.753915 42.579380 13.252927 177.108995 67.654077 -173.080306 -15.937070 38.382311 13.725129 0.421737 -7.493448 -0.178115 -0.024775 -0.057007 0.046837 0.005474 -0.000165 0.024634 
5.435659 0.797908 -6.294446 -179.724677 -18.813326 -172.527280 -16.760113 37.432690 -27.654923 -47.253071 -18.743268 -30.339044 19.983698 1.620847 56.521522 35.866544 -4.967361 -6.579336 -6.987435 9.193065 -9.140295 7.009713 -26.122474 -6.881008 16.339166 7.075604 -23.421521 -30.994447 -3.811926 77.254859 -31.182234 6.118439 -22.023151 7.410237 -14.279625 -18.572988 5.511231 -4.592378 78.470807 2.628051 3.091706 -10.468508 -1.883730 -7.192312 8.226661 -1.581826 -6.135510 -18.848197 3.073517 -7.002864 -13.985639 -3.110443 -1.548879 -22.689115 24.434938 12.555738 -1.244924 -90.279854 -27.200790 2.189712 -178.898984 -64.890337 -171.881565 18.251314 -28.278358 16.657899 0.535377 8.778517 0.293532 -0.013976 -0.014892 0.014408 0.002944 -0.012964 -0.003292 -25.877831 -8.817083 0.627498 89.631089 43.647000 12.096409 175.130866 66.455185 -174.198061 -15.858090 38.682771 13.523341 0.213546 -7.279212 -0.188413 -0.023704 -0.056073 0.047476 0.003505 0.000240 0.025182 
5.415106 0.795671 -6.339826 -179.719707 -19.943746 -172.355533 -17.472169 36.421555 -28.547374 -48.095545 -17.419477 -28.479247 22.232149 1.811630 59.254150 37.268454 -5.110107 -6.251761 -6.668486 9.757085 -8.862009 6.508135 -26.224248 -5.878344 14.858922 7.237960 -23.611879 -32.591872 -4.025055 79.109790 -35.493673 9.055741 -18.876612 7.721456 -17.000426 -17.910805 6.195721 -4.325250 78.516598 2.233388 2.750897 -10.120211 -2.021551 -6.757316 8.904805 -1.583048 -5.039235 -18.865661 3.096132 -6.034309 -14.349163 -3.081320 -1.292604 -23.052803 24.314137 12.020965 -1.486836 -91.094829 -27.877057 3.171033 -179.640655 -65.451104 -172.117457 18.078386 -28.245920 16.481761 0.454873 8.604815 0.320649 -0.016539 -0.011377 0.015636 0.003924 -0.013523 -0.002850 -25.860085 -8.771916 0.871880 88.746121 43.792227 9.634000 173.690463 66.035739 -174.692383 -16.177502 38.422131 13.872529 -0.021883 -7.093266 -0.186841 -0.022577 -0.057297 0.048818 0.000040 0.000022 0.026766 
5.393555 0.796528 -6.384600 -179.869292 -21.098548 -172.109650 -17.995451 35.462054 -28.886592 -48.087605 -16.279846 -27.142564 24.319821 1.838867 62.474209 38.290225 -5.098834 -6.810927 -6.279788 10.103594 -8.704380 6.150737 -26.319002 -5.242786 13.606518 7.904904 -24.442697 -34.630463 -3.580817 81.149356 -41.077722 13.549980 -13.940624 8.083968 -19.837934 -16.411095 6.899550 -4.166335 78.681126 1.728939 2.155003 -9.802129 -1.988522 -6.148932 9.348046 -1.403479 -4.571940 -18.898140 3.055271 -5.736189 -14.617218 -3.126609 -1.243210 -23.389233 24.506800 11.815463 -1.431407 -92.042309 -28.887643 4.302867 179.762575 -65.945327 -171.695899 17.818969 -28.722407 16.377554 0.069910 8.521152 0.295403 -0.019197 -0.006991 0.017620 0.004979 -0.012555 -0.002769 -25.983226 -8.587528 1.055333 87.692120 43.217877 6.799068 173.098946 66.406774 -174.819948 -16.593828 37.704639 14.202594 -0.416130 -6.988342 -0.151385 -0.022124 -0.058977 0.051555 -0.001965 -0.000303 0.029004 
5.371745 0.800287 -6.427125 179.724347 -22.145450 -171.946855 -18.820598 34.713742 -28.772618 -47.367601 -14.869587 -26.190486 26.564043 1.387691 67.118515 38.563764 -4.962264 -8.639295 -6.026838 10.542327 -8.821981 6.130063 -26.837974 -5.441864 12.542223 9.160601 -26.513231 -37.821067 -1.536640 85.254418 -47.722831 21.621394 -9.791743 8.762300 -23.364019 -13.643536 7.636658 -3.944205 78.791671 1.021082 1.232643 -8.823170 -2.041030 -5.431796 8.948813 -1.267494 -4.342111 -18.988161 3.242005 -5.868925 -14.315801 -3.129850 -1.619657 -23.184613 24.596880 12.021130 -1.516212 -92.740445 -30.459558 5.337597 178.668538 -66.206496 -170.689052 17.711998 -29.075700 16.355910 -0.231974 8.327968 0.205120 -0.022969 -0.002783 0.019765 0.006100 -0.011194 -0.002291 -26.187169 -8.643408 1.075500 86.975927 41.459503 3.777767 172.899095 67.863568 -174.704040 -16.828556 36.674368 14.230362 -0.913173 -7.016260 -0.096065 -0.022619 -0.062500 0.057575 -0.003464 -0.000934 0.030402 
5.350419 0.806030 -6.466892 179.510521 -23.426020 -172.003157 -19.200192 34.058924 -27.893722 -46.500142 -13.400907 -25.251971 27.818664 1.109599 69.790547 38.679800 -4.487419 -10.503325 -5.708559 10.682251 -8.922044 6.545177 -27.381530 -6.408060 12.324878 10.726598 -29.040544 -40.932422 1.579638 89.234074 -52.008299 27.421554 -7.898736 9.232211 -25.380187 -11.151348 8.160459 -3.487843 78.436645 0.661760 0.763211 -7.673660 -2.115522 -5.075128 7.299939 -1.293751 -4.353671 -18.809899 3.414203 -6.101140 -13.419224 -3.084654 -1.973375 -22.339817 24.113994 12.422850 -1.710362 -92.572667 -31.476832 6.772487 178.312155 -66.912504 -170.175354 17.761779 -29.066248 16.430546 -0.382983 8.192192 0.152526 -0.024892 0.000636 0.020831 0.007710 -0.009486 -0.002072 -25.842241 -9.367555 0.724368 85.831466 38.669087 1.600488 172.372142 70.437324 -174.948174 -16.719311 35.762762 13.936399 -1.332520 -7.162996 -0.049341 -0.023699 -0.063799 0.062437 -0.004972 -0.000964 0.029957 
